<?xml version="1.0" standalone="no"?>
<!DOCTYPE svg PUBLIC "-//W3C//DTD SVG 20010904//EN"
 "http://www.w3.org/TR/2001/REC-SVG-20010904/DTD/svg10.dtd">
<svg version="1.0" xmlns="http://www.w3.org/2000/svg"
 width="102.000000pt" height="102.000000pt" viewBox="0 0 102.000000 102.000000"
 preserveAspectRatio="xMidYMid meet">
<metadata>
Created by potrace 1.14, written by Peter Selinger 2001-2017
</metadata>
<g transform="translate(0.000000,102.000000) scale(0.100000,-0.100000)"
fill="#000000" stroke="none">
<path d="M534 878 l-19 -23 25 20 c14 11 27 21 29 22 2 2 0 3 -6 3 -5 0 -18
-10 -29 -22z"/>
<path d="M617 847 c-16 -16 -26 -31 -24 -34 8 -7 60 43 56 53 -2 6 -17 -3 -32
-19z"/>
<path d="M17 807 c-2 -12 -8 -31 -12 -41 -7 -16 -5 -18 8 -13 25 9 34 -18 33
-101 -1 -39 2 -72 7 -72 4 0 7 4 7 9 0 18 32 41 56 41 17 0 27 -8 34 -26 11
-27 -1 -66 -14 -45 -12 19 -23 12 -23 -14 0 -30 22 -33 39 -5 7 11 16 20 21
20 4 0 5 -4 2 -10 -4 -6 6 -7 25 -4 27 6 30 4 23 -12 -29 -77 -163 -68 -163
11 0 14 -5 25 -11 25 -5 0 -7 -4 -4 -10 3 -5 1 -26 -4 -47 -8 -28 -7 -39 2
-45 8 -5 7 -8 -5 -8 -22 0 -22 8 3 -103 11 -50 22 -100 25 -111 2 -10 6 -21 9
-25 7 -6 1 29 -18 110 -18 73 -9 95 42 109 45 12 56 23 16 16 -14 -3 -25 0
-25 5 0 5 18 9 41 9 22 0 49 4 59 10 15 8 20 6 25 -10 6 -19 5 -31 -11 -100
-9 -38 -13 -61 -20 -115 -5 -46 -7 -48 -20 -30 -15 19 -14 57 2 119 6 23 4 26
-17 22 -13 -3 -28 -5 -32 -5 -4 -1 -7 -7 -6 -13 8 -41 -32 -158 -53 -158 -4 0
-8 -4 -8 -9 0 -6 20 -3 45 6 28 9 45 21 45 31 0 12 6 10 28 -10 15 -14 36 -27
48 -30 17 -4 20 0 21 31 0 20 3 47 6 61 3 14 6 37 6 53 1 15 6 27 12 27 7 0 9
-12 7 -30 -3 -17 -1 -33 4 -36 4 -3 8 6 8 20 0 24 23 56 40 56 4 0 2 -19 -5
-42 -21 -69 -32 -94 -50 -111 -15 -16 -15 -17 9 -17 16 0 24 5 21 13 -3 6 6
44 20 82 21 61 28 70 47 68 l23 -2 -21 15 c-15 10 -20 22 -16 39 2 14 8 25 12
25 6 0 21 -54 21 -75 0 -3 9 -26 20 -52 12 -28 18 -59 15 -74 -5 -25 -2 -27
32 -31 47 -4 72 1 72 13 0 6 -8 8 -18 5 -14 -5 -20 3 -31 40 -8 25 -15 54 -16
63 -1 9 -7 30 -14 46 -23 54 -25 84 -7 91 9 3 16 10 16 15 0 6 -8 5 -20 -1
-10 -6 -23 -10 -27 -9 -37 6 -51 -3 -60 -38 -7 -30 -14 -38 -42 -45 -18 -5
-35 -7 -37 -5 -3 2 1 27 7 56 12 57 48 96 60 64 5 -15 6 -15 12 1 11 27 -19
30 -71 8 -25 -11 -50 -18 -53 -16 -12 7 21 64 37 64 8 0 -2 16 -24 38 -27 27
-37 46 -37 65 1 15 5 27 8 27 4 0 16 0 27 0 32 0 93 -61 93 -94 0 -20 6 -30
24 -37 14 -5 37 -18 51 -29 26 -21 42 -25 42 -11 0 5 -9 11 -19 14 -19 5 -48
80 -56 146 -2 14 -9 50 -16 79 l-12 52 -41 0 c-28 0 -36 -3 -27 -9 12 -8 53
-140 45 -149 -4 -6 -44 37 -44 47 0 4 -11 6 -25 3 -14 -2 -31 1 -39 7 -14 12
-46 5 -46 -10 0 -5 7 -12 15 -15 8 -4 15 -10 15 -15 0 -21 -18 -4 -70 65 -30
40 -65 80 -76 89 -21 15 -22 15 -27 -6z m72 -128 c13 -17 21 -32 19 -33 -5 -5
-46 -26 -50 -26 -2 0 -3 20 -3 45 0 25 3 45 6 45 3 0 15 -14 28 -31z"/>
<path d="M544 821 c3 -5 0 -11 -7 -14 -14 -5 -125 0 -143 7 -26 10 -23 -29 6
-93 17 -37 32 -76 33 -88 0 -12 4 -20 8 -17 4 2 5 14 3 27 -21 91 -12 147 24
147 15 0 15 -2 2 -10 -11 -7 -11 -10 -2 -10 10 0 13 -29 12 -127 -1 -71 -1
-146 -1 -168 l1 -39 17 24 c9 14 27 37 40 52 15 15 23 34 20 45 -4 15 -5 14
-6 -4 0 -13 -5 -23 -11 -23 -11 0 -9 129 3 148 5 6 4 12 -1 12 -12 0 -12 92 0
107 5 6 17 9 26 5 16 -5 16 -5 0 11 -18 18 -33 23 -24 8z"/>
<path d="M933 818 c3 -16 -46 -23 -69 -10 -27 15 -64 -35 -64 -85 0 -32 5 -42
22 -50 19 -8 25 -5 43 20 35 53 44 46 43 -40 0 -43 -5 -84 -10 -90 -17 -21 1
-15 36 12 30 23 32 27 31 86 -2 60 -3 62 -36 76 -18 8 -44 11 -56 8 -17 -4
-21 -2 -17 9 3 8 20 18 37 22 36 7 69 32 61 45 -8 14 -24 11 -21 -3z"/>
<path d="M636 794 l-39 -22 0 -81 c0 -80 1 -82 34 -111 19 -16 38 -30 42 -30
5 0 25 12 45 26 l37 27 -1 80 -2 81 -38 26 -39 27 -39 -23z m60 -114 c-1 -62
-5 -103 -13 -111 -16 -16 -25 20 -27 117 -1 89 7 122 28 105 10 -8 13 -38 12
-111z"/>
<path d="M193 803 c-18 -3 -21 -8 -14 -26 4 -12 6 -27 4 -34 -2 -6 0 -14 5
-17 6 -3 10 0 9 7 -1 41 5 59 26 67 23 9 9 11 -30 3z"/>
<path d="M266 725 c-3 -8 -1 -15 4 -15 6 0 10 7 10 15 0 8 -2 15 -4 15 -2 0
-6 -7 -10 -15z"/>
<path d="M251 645 c-1 -11 -4 -31 -6 -45 l-6 -25 11 25 c6 13 9 33 7 45 -4 19
-4 19 -6 0z"/>
<path d="M800 621 c0 -33 4 -40 24 -45 13 -3 32 -9 43 -13 16 -6 17 -5 3 12
-8 10 -13 28 -12 41 2 14 -4 26 -17 33 -33 18 -41 13 -41 -28z"/>
<path d="M785 551 c-12 -5 -39 -21 -60 -35 -28 -19 -47 -25 -65 -21 l-25 5 25
-20 c14 -11 34 -29 45 -38 11 -10 33 -26 48 -35 21 -14 28 -25 26 -45 -2 -15
-7 -32 -12 -39 -4 -6 -4 -14 1 -17 12 -7 14 -76 1 -76 -5 0 -12 7 -15 15 -4 8
-10 15 -16 15 -17 0 6 -28 50 -59 l42 -31 0 60 c0 54 3 62 23 69 12 5 28 6 36
3 9 -3 12 -1 7 6 -4 7 -20 12 -37 12 -28 0 -29 2 -29 44 0 50 10 62 40 46 26
-14 25 -6 -3 23 -24 23 -24 23 -33 3 -16 -36 -84 -33 -104 4 -8 16 -7 27 6 49
20 34 52 51 97 51 41 -1 63 -18 82 -63 18 -44 20 -148 3 -166 -10 -11 -10 -14
0 -18 8 -3 12 -30 12 -84 l0 -80 45 47 c25 25 45 53 45 62 -1 12 -4 11 -14 -7
-15 -28 -24 -13 -21 37 2 32 -3 36 -37 33 -26 -3 -22 7 11 23 28 15 29 18 26
77 -2 34 -8 72 -15 84 -25 47 -137 87 -185 66z"/>
<path d="M552 448 c-30 -17 -50 -34 -45 -37 5 -3 8 -39 8 -79 l-2 -72 49 -35
c26 -19 56 -35 66 -35 9 0 35 18 57 41 39 40 39 42 37 107 -2 64 -4 69 -42
105 -21 20 -47 37 -57 36 -10 0 -42 -14 -71 -31z m92 9 c16 -12 19 -29 19
-113 0 -96 -11 -144 -34 -144 -5 0 -21 11 -34 25 -23 22 -25 32 -25 114 0 80
3 93 22 111 26 24 29 24 52 7z"/>
</g>
</svg>
